<?xml version="1.0" encoding="UTF-8" standalone="no"?>
<!-- Generator: Adobe Illustrator 13.0.0, SVG Export Plug-In . SVG Version: 6.00 Build 14948)  -->

<svg
   xmlns:dc="http://purl.org/dc/elements/1.1/"
   xmlns:cc="http://creativecommons.org/ns#"
   xmlns:rdf="http://www.w3.org/1999/02/22-rdf-syntax-ns#"
   xmlns:svg="http://www.w3.org/2000/svg"
   xmlns="http://www.w3.org/2000/svg"
   xmlns:sodipodi="http://sodipodi.sourceforge.net/DTD/sodipodi-0.dtd"
   xmlns:inkscape="http://www.inkscape.org/namespaces/inkscape"
   version="1.1"
   id="Layer_1"
   x="0px"
   y="0px"
   width="16"
   height="16"
   viewBox="0 0 16 16"
   enable-background="new 0 0 128 128"
   xml:space="preserve"
   inkscape:version="0.48.4 r9939"
   sodipodi:docname="about.svg"><metadata
   id="metadata15"><rdf:RDF><cc:Work
       rdf:about=""><dc:format>image/svg+xml</dc:format><dc:type
         rdf:resource="http://purl.org/dc/dcmitype/StillImage" /></cc:Work></rdf:RDF></metadata><defs
   id="defs13" /><sodipodi:namedview
   pagecolor="#ffffff"
   bordercolor="#666666"
   borderopacity="1"
   objecttolerance="10"
   gridtolerance="10"
   guidetolerance="10"
   inkscape:pageopacity="0"
   inkscape:pageshadow="2"
   inkscape:window-width="1280"
   inkscape:window-height="962"
   id="namedview11"
   showgrid="false"
   inkscape:zoom="46.5625"
   inkscape:cx="8"
   inkscape:cy="8"
   inkscape:window-x="-8"
   inkscape:window-y="-8"
   inkscape:window-maximized="1"
   inkscape:current-layer="g5" />

<g
   id="g5"
   style="fill:#000000;fill-opacity:1"
   transform="matrix(0.1484952,0,0,0.14789832,-1.8130025,-1.8803685)">
	<path
   clip-rule="evenodd"
   d="m 77.588,31.603819 c -42.327,6.499026 -49.680177,46.628582 -49.386177,51.495764 6.798,6.96 19.396203,7.419236 19.396203,7.419236 0,0 14.590793,35.313911 18.981741,35.639941 2.384325,-1.40447 -9.397793,-36.89777 -9.397793,-36.89777 0,0 2.774026,-0.259171 6.181026,-1.592171 3.979,-1.558 7.870171,-3.992171 7.870171,-3.992171 0,0 33.487669,29.218362 37.148829,27.763172 1.34711,-3.34293 -30.273368,-33.989633 -30.273368,-33.989633 0,0 3.214368,-4.264368 5.495368,-9.694368 2.041,-4.859 1.900513,-8.980539 1.900513,-8.980539 0,0 26.921097,8.817022 30.529547,6.567008 C 115.15905,61.059315 86.005,50.054016 86.005,50.054016 c 0,0 -1.457,-12.623197 -8.417,-18.450197 z"
   id="path7"
   style="fill:#ffffff;fill-opacity:1;fill-rule:evenodd"
   inkscape:connector-curvature="0"
   sodipodi:nodetypes="cccccccccccccc" />
	<path
   clip-rule="evenodd"
   d="M 25.418472,29.485229 C 3.2599946,52.572399 22.396,76.437819 24.015,78.703819 c -0.273,-20.984 22.258236,-51.336764 49.825236,-51.010764 -4.494,-7.37 -28.25419,-17.8476062 -48.421764,1.792174 z"
   id="path9"
   style="fill:#ffffff;fill-opacity:1;fill-rule:evenodd"
   inkscape:connector-curvature="0"
   sodipodi:nodetypes="cccc" />
</g>
</svg>