<?xml version="1.0" encoding="UTF-8" standalone="no"?>
<!-- Generator: Adobe Illustrator 13.0.0, SVG Export Plug-In . SVG Version: 6.00 Build 14948)  -->

<svg
   xmlns:dc="http://purl.org/dc/elements/1.1/"
   xmlns:cc="http://creativecommons.org/ns#"
   xmlns:rdf="http://www.w3.org/1999/02/22-rdf-syntax-ns#"
   xmlns:svg="http://www.w3.org/2000/svg"
   xmlns="http://www.w3.org/2000/svg"
   xmlns:sodipodi="http://sodipodi.sourceforge.net/DTD/sodipodi-0.dtd"
   xmlns:inkscape="http://www.inkscape.org/namespaces/inkscape"
   version="1.1"
   id="Layer_1"
   x="0px"
   y="0px"
   width="128px"
   height="128px"
   viewBox="0 0 128 128"
   enable-background="new 0 0 128 128"
   xml:space="preserve"
   inkscape:version="0.48.4 r9939"
   sodipodi:docname="caution.svg"><metadata
   id="metadata13"><rdf:RDF><cc:Work
       rdf:about=""><dc:format>image/svg+xml</dc:format><dc:type
         rdf:resource="http://purl.org/dc/dcmitype/StillImage" /></cc:Work></rdf:RDF></metadata><defs
   id="defs11">
		
	</defs><sodipodi:namedview
   pagecolor="#ffffff"
   bordercolor="#666666"
   borderopacity="1"
   objecttolerance="10"
   gridtolerance="10"
   guidetolerance="10"
   inkscape:pageopacity="0"
   inkscape:pageshadow="2"
   inkscape:window-width="1280"
   inkscape:window-height="962"
   id="namedview9"
   showgrid="false"
   inkscape:zoom="1.84375"
   inkscape:cx="-20.610169"
   inkscape:cy="64"
   inkscape:window-x="-8"
   inkscape:window-y="-8"
   inkscape:window-maximized="1"
   inkscape:current-layer="g3" />
<g
   id="g3">
	<path
   style="fill-rule:evenodd;fill:#d24a41;fill-opacity:1"
   inkscape:connector-curvature="0"
   id="path7"
   d="M 123.612,101.997 71.957,13.548 c -4.309,-4.31 -11.299,-4.31 -15.607,0 L 4.69,101.997 c -4.308,4.308 -4.308,11.295 0,15.606 h 118.922 c 4.312,-4.311 4.312,-11.298 0,-15.606 z M 59.396,45.3 c 0,-3.419 2.772,-6.189 6.189,-6.189 3.417,0 6.189,2.77 6.189,6.189 v 28.885 c 0,3.417 -2.772,6.189 -6.189,6.189 -3.417,0 -6.189,-2.772 -6.189,-6.189 V 45.3 z m 6.226,55.742 c -3.417,0 -6.189,-2.769 -6.189,-6.189 0,-3.422 2.772,-6.19 6.189,-6.19 3.417,0 6.189,2.769 6.189,6.19 10e-4,3.42 -2.772,6.189 -6.189,6.189 z"
   clip-rule="evenodd" />
</g>
</svg>