<?xml version="1.0" encoding="UTF-8" standalone="no"?>
<!-- Generator: Adobe Illustrator 13.0.0, SVG Export Plug-In . SVG Version: 6.00 Build 14948)  -->

<svg
   xmlns:dc="http://purl.org/dc/elements/1.1/"
   xmlns:cc="http://creativecommons.org/ns#"
   xmlns:rdf="http://www.w3.org/1999/02/22-rdf-syntax-ns#"
   xmlns:svg="http://www.w3.org/2000/svg"
   xmlns="http://www.w3.org/2000/svg"
   xmlns:sodipodi="http://sodipodi.sourceforge.net/DTD/sodipodi-0.dtd"
   xmlns:inkscape="http://www.inkscape.org/namespaces/inkscape"
   version="1.1"
   id="Layer_1"
   x="0px"
   y="0px"
   width="32"
   height="32"
   viewBox="0 0 32 32"
   enable-background="new 0 0 128 128"
   xml:space="preserve"
   inkscape:version="0.48.4 r9939"
   sodipodi:docname="caution.svg"><metadata
   id="metadata13"><rdf:RDF><cc:Work
       rdf:about=""><dc:format>image/svg+xml</dc:format><dc:type
         rdf:resource="http://purl.org/dc/dcmitype/StillImage" /></cc:Work></rdf:RDF></metadata><defs
   id="defs11">
		
	</defs><sodipodi:namedview
   pagecolor="#ffffff"
   bordercolor="#666666"
   borderopacity="1"
   objecttolerance="10"
   gridtolerance="10"
   guidetolerance="10"
   inkscape:pageopacity="0"
   inkscape:pageshadow="2"
   inkscape:window-width="1280"
   inkscape:window-height="962"
   id="namedview9"
   showgrid="false"
   inkscape:zoom="20.570604"
   inkscape:cx="16.423686"
   inkscape:cy="15.201548"
   inkscape:window-x="-8"
   inkscape:window-y="-8"
   inkscape:window-maximized="1"
   inkscape:current-layer="g3" />
<g
   id="g3"
   transform="translate(0,-96)">
	<path
   style="fill:#d24a41;fill-opacity:1;fill-rule:evenodd"
   inkscape:connector-curvature="0"
   id="path7"
   d="M 30.731104,121.63028 17.903481,99.665516 c -1.070065,-1.070308 -2.805911,-1.070308 -3.875727,0 L 1.1988898,121.63028 c -1.06981711,1.06982 -1.06981711,2.80492 0,3.87548 H 30.731104 c 1.07081,-1.07056 1.07081,-2.80566 0,-3.87548 z M 14.784175,107.55056 c 0,-0.84904 0.688378,-1.53692 1.53693,-1.53692 0.848553,0 1.536931,0.68788 1.536931,1.53692 v 7.1731 c 0,0.84855 -0.688378,1.53693 -1.536931,1.53693 -0.848552,0 -1.53693,-0.68838 -1.53693,-1.53693 v -7.1731 z m 1.546119,13.84257 c -0.848552,0 -1.536931,-0.68763 -1.536931,-1.53693 0,-0.84979 0.688379,-1.53718 1.536931,-1.53718 0.848553,0 1.536931,0.68763 1.536931,1.53718 2.48e-4,0.8493 -0.688378,1.53693 -1.536931,1.53693 z"
   clip-rule="evenodd" />
</g>
</svg>