<?xml version="1.0" encoding="UTF-8" standalone="no"?>
<!-- Generator: Adobe Illustrator 13.0.0, SVG Export Plug-In . SVG Version: 6.00 Build 14948)  -->

<svg
   xmlns:dc="http://purl.org/dc/elements/1.1/"
   xmlns:cc="http://creativecommons.org/ns#"
   xmlns:rdf="http://www.w3.org/1999/02/22-rdf-syntax-ns#"
   xmlns:svg="http://www.w3.org/2000/svg"
   xmlns="http://www.w3.org/2000/svg"
   xmlns:sodipodi="http://sodipodi.sourceforge.net/DTD/sodipodi-0.dtd"
   xmlns:inkscape="http://www.inkscape.org/namespaces/inkscape"
   version="1.1"
   id="Layer_1"
   x="0px"
   y="0px"
   width="32"
   height="32"
   viewBox="0 0 32 32"
   enable-background="new 0 0 128 128"
   xml:space="preserve"
   inkscape:version="0.48.4 r9939"
   sodipodi:docname="correct.svg"><metadata
   id="metadata9"><rdf:RDF><cc:Work
       rdf:about=""><dc:format>image/svg+xml</dc:format><dc:type
         rdf:resource="http://purl.org/dc/dcmitype/StillImage" /></cc:Work></rdf:RDF></metadata><defs
   id="defs7" /><sodipodi:namedview
   pagecolor="#ffffff"
   bordercolor="#666666"
   borderopacity="1"
   objecttolerance="10"
   gridtolerance="10"
   guidetolerance="10"
   inkscape:pageopacity="0"
   inkscape:pageshadow="2"
   inkscape:window-width="1280"
   inkscape:window-height="962"
   id="namedview5"
   showgrid="false"
   inkscape:zoom="1.84375"
   inkscape:cx="-20.610169"
   inkscape:cy="64"
   inkscape:window-x="-8"
   inkscape:window-y="-8"
   inkscape:window-maximized="1"
   inkscape:current-layer="Layer_1" />
<path
   clip-rule="evenodd"
   d="M 16.000251,32 C 7.1636928,32 0,24.836558 0,16.000251 0,7.1636928 7.1636928,0 16.000251,0 24.836307,0 32,7.1636928 32,16.000251 32,24.836558 24.836558,32 16.000251,32 z M 24.932308,10.392618 23.339652,8.7999624 c -0.293265,-0.2927639 -0.767753,-0.2927639 -1.061269,0 L 12.732975,18.345871 8.1918757,13.772437 c -0.2932653,-0.293265 -0.768004,-0.293265 -1.0612693,0 L 5.5384519,15.36384 c -0.2932652,0.293265 -0.2932652,0.768756 0,1.061269 l 5.0494261,5.086774 c 0.0065,0.007 0.009,0.01654 0.01604,0.02406 l 1.092601,1.092351 0.263186,0.265944 5.02e-4,-0.0013 0.235614,0.235365 c 0.293266,0.292012 0.768004,0.292012 1.06127,0 L 24.932055,11.453887 c 0.293767,-0.293265 0.293767,-0.768505 2.51e-4,-1.061269 z"
   id="path3"
   style="fill:#49c274;fill-opacity:1;fill-rule:evenodd"
   inkscape:connector-curvature="0" />
</svg>