<?xml version="1.0" encoding="UTF-8" standalone="no"?>
<!-- Generator: Adobe Illustrator 13.0.0, SVG Export Plug-In . SVG Version: 6.00 Build 14948)  -->

<svg
   xmlns:dc="http://purl.org/dc/elements/1.1/"
   xmlns:cc="http://creativecommons.org/ns#"
   xmlns:rdf="http://www.w3.org/1999/02/22-rdf-syntax-ns#"
   xmlns:svg="http://www.w3.org/2000/svg"
   xmlns="http://www.w3.org/2000/svg"
   xmlns:sodipodi="http://sodipodi.sourceforge.net/DTD/sodipodi-0.dtd"
   xmlns:inkscape="http://www.inkscape.org/namespaces/inkscape"
   version="1.1"
   id="Layer_1"
   x="0px"
   y="0px"
   width="128px"
   height="128px"
   viewBox="0 0 128 128"
   enable-background="new 0 0 128 128"
   xml:space="preserve"
   inkscape:version="0.48.4 r9939"
   sodipodi:docname="correct.svg"><metadata
   id="metadata9"><rdf:RDF><cc:Work
       rdf:about=""><dc:format>image/svg+xml</dc:format><dc:type
         rdf:resource="http://purl.org/dc/dcmitype/StillImage" /></cc:Work></rdf:RDF></metadata><defs
   id="defs7" /><sodipodi:namedview
   pagecolor="#ffffff"
   bordercolor="#666666"
   borderopacity="1"
   objecttolerance="10"
   gridtolerance="10"
   guidetolerance="10"
   inkscape:pageopacity="0"
   inkscape:pageshadow="2"
   inkscape:window-width="1280"
   inkscape:window-height="962"
   id="namedview5"
   showgrid="false"
   inkscape:zoom="1.84375"
   inkscape:cx="-20.610169"
   inkscape:cy="64"
   inkscape:window-x="-8"
   inkscape:window-y="-8"
   inkscape:window-maximized="1"
   inkscape:current-layer="Layer_1" />
<path
   fill-rule="evenodd"
   clip-rule="evenodd"
   d="M64.013,127.845c-35.254,0-63.834-28.579-63.834-63.832  c0-35.254,28.58-63.834,63.834-63.834c35.252,0,63.832,28.58,63.832,63.834C127.845,99.266,99.266,127.845,64.013,127.845z   M99.648,41.641l-6.354-6.354c-1.17-1.168-3.063-1.168-4.234,0L50.978,73.371L32.861,55.125c-1.17-1.17-3.064-1.17-4.234,0  l-6.352,6.349c-1.17,1.17-1.17,3.067,0,4.234L42.42,86.002c0.026,0.028,0.036,0.066,0.064,0.096l4.359,4.358l1.05,1.061l0.002-0.005  l0.94,0.939c1.17,1.165,3.064,1.165,4.234,0l46.578-46.576C100.819,44.705,100.819,42.809,99.648,41.641z"
   id="path3"
   style="fill:#49c274;fill-opacity:1" />
</svg>