<?xml version="1.0" encoding="UTF-8" standalone="no"?>
<!-- Generator: Adobe Illustrator 13.0.0, SVG Export Plug-In . SVG Version: 6.00 Build 14948)  -->

<svg
   xmlns:dc="http://purl.org/dc/elements/1.1/"
   xmlns:cc="http://creativecommons.org/ns#"
   xmlns:rdf="http://www.w3.org/1999/02/22-rdf-syntax-ns#"
   xmlns:svg="http://www.w3.org/2000/svg"
   xmlns="http://www.w3.org/2000/svg"
   xmlns:sodipodi="http://sodipodi.sourceforge.net/DTD/sodipodi-0.dtd"
   xmlns:inkscape="http://www.inkscape.org/namespaces/inkscape"
   version="1.1"
   id="Layer_1"
   x="0px"
   y="0px"
   width="128px"
   height="128px"
   viewBox="0 0 128 128"
   enable-background="new 0 0 128 128"
   xml:space="preserve"
   inkscape:version="0.48.4 r9939"
   sodipodi:docname="no-icon-2.svg"><metadata
   id="metadata13"><rdf:RDF><cc:Work
       rdf:about=""><dc:format>image/svg+xml</dc:format><dc:type
         rdf:resource="http://purl.org/dc/dcmitype/StillImage" /></cc:Work></rdf:RDF></metadata><defs
   id="defs11" /><sodipodi:namedview
   pagecolor="#ffffff"
   bordercolor="#666666"
   borderopacity="1"
   objecttolerance="10"
   gridtolerance="10"
   guidetolerance="10"
   inkscape:pageopacity="0"
   inkscape:pageshadow="2"
   inkscape:window-width="1280"
   inkscape:window-height="962"
   id="namedview9"
   showgrid="false"
   inkscape:zoom="1.84375"
   inkscape:cx="-20.610169"
   inkscape:cy="64"
   inkscape:window-x="-8"
   inkscape:window-y="-8"
   inkscape:window-maximized="1"
   inkscape:current-layer="g3" />
<g
   id="g3">
	<g
   id="g5"
   style="fill:#b3b3b3;fill-opacity:1">
		<path
   d="M19.863-0.5H2.409C0.804-0.5-0.5,0.804-0.5,2.409v17.456c0,1.604,1.304,2.909,2.909,2.909c1.605,0,2.91-1.304,2.91-2.909    V5.318h14.545c1.604,0,2.909-1.304,2.909-2.91C22.772,0.804,21.468-0.5,19.863-0.5z M54.772-0.5H37.317    c-1.604,0-2.909,1.304-2.909,2.909c0,1.605,1.304,2.91,2.909,2.91h17.455c1.606,0,2.911-1.304,2.911-2.91    C57.683,0.804,56.378-0.5,54.772-0.5z M89.683-0.5H72.229c-1.604,0-2.911,1.304-2.911,2.909c0,1.605,1.308,2.91,2.911,2.91h17.454    c1.602,0,2.908-1.304,2.908-2.91C92.591,0.804,91.284-0.5,89.683-0.5z M124.591-0.5h-17.454c-1.603,0-2.908,1.304-2.908,2.909    c0,1.605,1.306,2.91,2.908,2.91h14.546v14.546c0,1.604,1.306,2.909,2.908,2.909c1.602,0,2.909-1.304,2.909-2.909V2.409    C127.5,0.804,126.192-0.5,124.591-0.5z M124.591,34.409c-1.603,0-2.908,1.304-2.908,2.91v17.455c0,1.604,1.306,2.909,2.908,2.909    c1.602,0,2.909-1.304,2.909-2.909V37.318C127.5,35.713,126.192,34.409,124.591,34.409z M124.591,69.318    c-1.603,0-2.908,1.307-2.908,2.909v17.454c0,1.603,1.306,2.909,2.908,2.909c1.602,0,2.909-1.307,2.909-2.909V72.228    C127.5,70.625,126.192,69.318,124.591,69.318z M124.591,104.228c-1.603,0-2.908,1.307-2.908,2.908v14.547h-14.546    c-1.603,0-2.908,1.306-2.908,2.908c0,1.602,1.306,2.909,2.908,2.909h17.454c1.602,0,2.909-1.308,2.909-2.909v-17.455    C127.5,105.534,126.192,104.228,124.591,104.228z M89.683,121.683H72.229c-1.604,0-2.911,1.306-2.911,2.908    c0,1.602,1.308,2.909,2.911,2.909h17.454c1.602,0,2.908-1.308,2.908-2.909C92.591,122.988,91.284,121.683,89.683,121.683z     M54.772,121.683H37.317c-1.604,0-2.909,1.306-2.909,2.908c0,1.602,1.304,2.909,2.909,2.909h17.455    c1.606,0,2.911-1.308,2.911-2.909C57.683,122.988,56.378,121.683,54.772,121.683z M19.863,121.683H5.318v-14.547    c0-1.602-1.304-2.908-2.91-2.908c-1.604,0-2.909,1.307-2.909,2.908v17.455c0,1.602,1.304,2.909,2.909,2.909h17.455    c1.604,0,2.909-1.308,2.909-2.909C22.772,122.988,21.468,121.683,19.863,121.683z M2.409,92.591c1.605,0,2.91-1.307,2.91-2.909    V72.228c0-1.603-1.304-2.909-2.91-2.909c-1.604,0-2.909,1.307-2.909,2.909v17.454C-0.5,91.284,0.804,92.591,2.409,92.591z     M2.409,57.682c1.605,0,2.91-1.304,2.91-2.909V37.318c0-1.605-1.304-2.91-2.91-2.91c-1.604,0-2.909,1.304-2.909,2.91v17.455    C-0.5,56.377,0.804,57.682,2.409,57.682z"
   id="path7"
   style="fill:#b3b3b3;fill-opacity:1" />
	</g>
</g>
</svg>