<?xml version="1.0" encoding="UTF-8" standalone="no"?>
<!-- Generator: Adobe Illustrator 13.0.0, SVG Export Plug-In . SVG Version: 6.00 Build 14948)  -->

<svg
   xmlns:dc="http://purl.org/dc/elements/1.1/"
   xmlns:cc="http://creativecommons.org/ns#"
   xmlns:rdf="http://www.w3.org/1999/02/22-rdf-syntax-ns#"
   xmlns:svg="http://www.w3.org/2000/svg"
   xmlns="http://www.w3.org/2000/svg"
   xmlns:sodipodi="http://sodipodi.sourceforge.net/DTD/sodipodi-0.dtd"
   xmlns:inkscape="http://www.inkscape.org/namespaces/inkscape"
   version="1.1"
   id="Layer_1"
   x="0px"
   y="0px"
   width="42"
   height="42"
   viewBox="0 0 42 42"
   enable-background="new 0 0 128 128"
   xml:space="preserve"
   inkscape:version="0.48.4 r9939"
   sodipodi:docname="prev-page.svg"><metadata
   id="metadata11"><rdf:RDF><cc:Work
       rdf:about=""><dc:format>image/svg+xml</dc:format><dc:type
         rdf:resource="http://purl.org/dc/dcmitype/StillImage" /></cc:Work></rdf:RDF></metadata><defs
   id="defs9" /><sodipodi:namedview
   pagecolor="#ffffff"
   bordercolor="#666666"
   borderopacity="1"
   objecttolerance="10"
   gridtolerance="10"
   guidetolerance="10"
   inkscape:pageopacity="0"
   inkscape:pageshadow="2"
   inkscape:window-width="1280"
   inkscape:window-height="962"
   id="namedview7"
   showgrid="false"
   inkscape:zoom="14.75"
   inkscape:cx="33.430513"
   inkscape:cy="23.322034"
   inkscape:window-x="-8"
   inkscape:window-y="-8"
   inkscape:window-maximized="1"
   inkscape:current-layer="Layer_1" />

<path
   d="m 18.372677,28.270614 c 0.862566,0.872202 0.610554,2.282362 -0.25201,3.15456 -0.86169,0.869136 -2.511591,0.870451 -3.374594,0 L 6.4038156,22.830589 c -0.8621262,-0.870888 -0.8621262,-2.283235 0,-3.154562 l 8.3418214,-8.593273 c 0.863439,-0.871327 2.512027,-0.871327 3.374592,0 0.862564,0.870888 1.114576,2.282359 0.252448,3.152808 l -6.121229,7.017965 z"
   id="path5"
   style="fill:#ececec;fill-opacity:1"
   inkscape:connector-curvature="0"
   sodipodi:nodetypes="cccccccccc" />
<path
   d="m 35.453083,32.270614 c 0.862564,0.872202 0.610552,2.282362 -0.252014,3.15456 -0.861687,0.869136 -2.511587,0.870451 -3.374591,0 L 19.48422,22.830589 c -0.862127,-0.870888 -0.862127,-2.283235 0,-3.154562 L 31.82604,7.0827539 c 0.863442,-0.8713265 2.512027,-0.8713265 3.374591,0 0.862569,0.8708885 1.114579,2.2823586 0.252452,3.1528081 L 25.331852,21.253527 z"
   id="path5-7"
   style="fill:#ececec;fill-opacity:1"
   inkscape:connector-curvature="0"
   sodipodi:nodetypes="cccccccccc" /></svg>