<?xml version="1.0" encoding="UTF-8" standalone="no"?>
<!-- Generator: Adobe Illustrator 13.0.0, SVG Export Plug-In . SVG Version: 6.00 Build 14948)  -->

<svg
   xmlns:dc="http://purl.org/dc/elements/1.1/"
   xmlns:cc="http://creativecommons.org/ns#"
   xmlns:rdf="http://www.w3.org/1999/02/22-rdf-syntax-ns#"
   xmlns:svg="http://www.w3.org/2000/svg"
   xmlns="http://www.w3.org/2000/svg"
   xmlns:sodipodi="http://sodipodi.sourceforge.net/DTD/sodipodi-0.dtd"
   xmlns:inkscape="http://www.inkscape.org/namespaces/inkscape"
   version="1.1"
   id="Layer_1"
   x="0px"
   y="0px"
   width="128px"
   height="128px"
   viewBox="0 0 128 128"
   enable-background="new 0 0 128 128"
   xml:space="preserve"
   inkscape:version="0.48.4 r9939"
   sodipodi:docname="quote.svg"><metadata
   id="metadata9"><rdf:RDF><cc:Work
       rdf:about=""><dc:format>image/svg+xml</dc:format><dc:type
         rdf:resource="http://purl.org/dc/dcmitype/StillImage" /></cc:Work></rdf:RDF></metadata><defs
   id="defs7" /><sodipodi:namedview
   pagecolor="#ffffff"
   bordercolor="#666666"
   borderopacity="1"
   objecttolerance="10"
   gridtolerance="10"
   guidetolerance="10"
   inkscape:pageopacity="0"
   inkscape:pageshadow="2"
   inkscape:window-width="1280"
   inkscape:window-height="962"
   id="namedview5"
   showgrid="false"
   inkscape:zoom="6.5663285"
   inkscape:cx="63.174393"
   inkscape:cy="62.69492"
   inkscape:window-x="-8"
   inkscape:window-y="-8"
   inkscape:window-maximized="1"
   inkscape:current-layer="Layer_1" />
<path
   transform="matrix(1.0807556,0,0,1.1816588,-7.4374492,-18.982415)"
   sodipodi:type="arc"
   style="color:#000000;fill:#dfd4d6;fill-opacity:1;fill-rule:nonzero;stroke:none;stroke-width:1;marker:none;visibility:visible;display:inline;overflow:visible;enable-background:accumulate"
   id="path3750"
   sodipodi:cx="64.81356"
   sodipodi:cy="68.067795"
   sodipodi:rx="57.220341"
   sodipodi:ry="44.745762"
   d="m 122.0339,68.067795 a 57.220341,44.745762 0 1 1 -114.4406802,0 57.220341,44.745762 0 1 1 114.4406802,0 z" /><path
   d="m 34.561589,42.810254 c -1.195614,1.299579 -2.150214,2.84017 -2.854348,4.612323 -0.699414,1.776878 -1.053842,3.57266 -1.053842,5.396796 0,3.752239 1.058567,6.942114 3.166248,9.574351 2.112404,2.632238 4.862785,4.205909 8.25587,4.725741 l 1.176708,0.07562 1.016034,0.160674 c 1.559494,0.207933 2.343967,0.808102 2.343967,1.795782 0,1.044389 -1.044389,2.684222 -3.128442,4.924222 -2.192743,2.400677 -5.661436,4.820255 -10.410804,7.26819 -1.984815,1.044389 -2.972494,2.348693 -2.972494,3.912913 0,0.98768 0.33553,1.809959 1.016033,2.462111 0.675784,0.652153 1.535868,0.978229 2.580256,0.978229 2.603885,0 6.200174,-1.512238 10.784142,-4.531986 5.415699,-3.544306 9.739752,-7.854181 12.967432,-12.934352 3.227682,-5.080172 4.843885,-10.098909 4.843885,-15.051485 0,-2.343968 -0.44422,-4.673758 -1.327933,-6.994096 -0.888439,-2.315614 -2.079326,-4.281522 -3.591563,-5.902451 -3.180423,-3.492326 -7.003548,-5.236122 -11.48355,-5.236122 -4.579243,-0.0095 -8.355112,1.583122 -11.327599,4.763548 l 0,0 z m 37.328625,0 c -1.195613,1.299579 -2.145487,2.854347 -2.849622,4.650129 -0.699409,1.800508 -1.053839,3.582112 -1.053839,5.354264 0,3.752239 1.039662,6.961017 3.118988,9.616884 2.074601,2.660592 4.806079,4.220086 8.184983,4.687934 l 1.247596,0.07562 0.935697,0.160674 c 1.554768,0.207933 2.339241,0.808102 2.339241,1.795782 0,1.044389 -1.016034,2.684222 -3.043378,4.924222 -2.131309,2.291985 -5.59055,4.716289 -10.368274,7.26819 -1.97536,1.044389 -2.96304,2.348693 -2.96304,3.912913 0,0.98768 0.335527,1.809959 1.011309,2.462111 0.675781,0.652153 1.535866,0.978229 2.575528,0.978229 2.599158,0 6.185995,-1.512238 10.765238,-4.531986 5.410973,-3.544306 9.711398,-7.854181 12.905999,-12.934352 3.194601,-5.080172 4.796627,-10.098909 4.796627,-15.051485 0,-2.343968 -0.44422,-4.673758 -1.327934,-6.994096 -0.883714,-2.315614 -2.079326,-4.281522 -3.586837,-5.902451 -3.170973,-3.492326 -6.965742,-5.236122 -11.38431,-5.236122 -4.626501,-0.0095 -8.397642,1.583122 -11.303972,4.763548 l 0,0 z"
   id="path3"
   inkscape:connector-curvature="0"
   style="fill:#ffffff;fill-opacity:1" />
<path
   style="fill:#dfd4d6;fill-opacity:1;stroke:none"
   d="m 113.28762,86.992334 12.2922,35.041556 -35.345725,-15.6985 z"
   id="path3770"
   inkscape:connector-curvature="0"
   sodipodi:nodetypes="cccc" /></svg>