<?xml version="1.0" encoding="UTF-8" standalone="no"?>
<!-- Generator: Adobe Illustrator 13.0.0, SVG Export Plug-In . SVG Version: 6.00 Build 14948)  -->

<svg
   xmlns:dc="http://purl.org/dc/elements/1.1/"
   xmlns:cc="http://creativecommons.org/ns#"
   xmlns:rdf="http://www.w3.org/1999/02/22-rdf-syntax-ns#"
   xmlns:svg="http://www.w3.org/2000/svg"
   xmlns="http://www.w3.org/2000/svg"
   xmlns:sodipodi="http://sodipodi.sourceforge.net/DTD/sodipodi-0.dtd"
   xmlns:inkscape="http://www.inkscape.org/namespaces/inkscape"
   version="1.1"
   id="Layer_1"
   x="0px"
   y="0px"
   width="128px"
   height="128px"
   viewBox="0 0 128 128"
   enable-background="new 0 0 128 128"
   xml:space="preserve"
   inkscape:version="0.48.4 r9939"
   sodipodi:docname="quote.svg"><metadata
   id="metadata9"><rdf:RDF><cc:Work
       rdf:about=""><dc:format>image/svg+xml</dc:format><dc:type
         rdf:resource="http://purl.org/dc/dcmitype/StillImage" /></cc:Work></rdf:RDF></metadata><defs
   id="defs7" /><sodipodi:namedview
   pagecolor="#ffffff"
   bordercolor="#666666"
   borderopacity="1"
   objecttolerance="10"
   gridtolerance="10"
   guidetolerance="10"
   inkscape:pageopacity="0"
   inkscape:pageshadow="2"
   inkscape:window-width="1280"
   inkscape:window-height="962"
   id="namedview5"
   showgrid="false"
   inkscape:zoom="1.84375"
   inkscape:cx="-105.22034"
   inkscape:cy="64"
   inkscape:window-x="-8"
   inkscape:window-y="-8"
   inkscape:window-maximized="1"
   inkscape:current-layer="Layer_1" />
<path
   d="m 116.29916,99.184272 c 2.04722,-2.225237 3.68176,-4.863155 4.88743,-7.89757 1.19759,-3.042506 1.80447,-6.11738 1.80447,-9.240805 0,-6.424867 -1.81256,-11.886814 -5.42149,-16.393931 -3.61702,-4.507118 -8.32643,-7.201678 -14.13633,-8.091773 l -2.01485,-0.129469 -1.739729,-0.27512 c -2.670285,-0.356038 -4.013519,-1.383693 -4.013519,-3.074874 0,-1.788281 1.788282,-4.596127 5.356758,-8.431627 3.75458,-4.110621 9.69394,-8.253608 17.82617,-12.445147 3.39855,-1.788282 5.08973,-4.021611 5.08973,-6.699988 0,-1.69118 -0.57452,-3.099149 -1.73973,-4.215813 -1.15713,-1.116665 -2.62983,-1.674997 -4.41811,-1.674997 -4.45857,0 -10.61641,2.589367 -18.465428,7.76001 -9.273172,6.06883 -16.677144,13.448526 -22.203825,22.147182 -5.526681,8.698656 -8.294067,17.292119 -8.294067,25.772297 0,4.013519 0.760626,8.002763 2.273788,11.975824 1.521253,3.964969 3.56038,7.331146 6.149747,10.106624 5.445763,5.979825 11.992008,8.965685 19.663008,8.965685 7.840927,0.0162 14.306257,-2.71074 19.395977,-8.156508 l 0,0 z m -63.916911,0 c 2.047218,-2.225237 3.673665,-4.88743 4.879339,-7.962304 1.197582,-3.082966 1.804465,-6.133564 1.804465,-9.167979 0,-6.424867 -1.78019,-11.919181 -5.34057,-16.466758 -3.552288,-4.555668 -8.229333,-7.225953 -14.01495,-8.027038 l -2.136229,-0.129469 -1.602171,-0.27512 c -2.662193,-0.356038 -4.005427,-1.383693 -4.005427,-3.074874 0,-1.788281 1.739731,-4.596127 5.211102,-8.431627 3.649389,-3.92451 9.572567,-8.075589 17.753349,-12.445147 3.382361,-1.788282 5.073542,-4.021611 5.073542,-6.699988 0,-1.69118 -0.574516,-3.099149 -1.731639,-4.215813 -1.157124,-1.116665 -2.629827,-1.674997 -4.410017,-1.674997 -4.450475,0 -10.59213,2.589367 -18.433058,7.76001 -9.26508,6.06883 -16.628594,13.448526 -22.098632,22.147182 -5.4700386,8.698656 -8.2131496,17.292119 -8.2131496,25.772297 0,4.013519 0.7606266,8.002763 2.2737882,11.975824 1.5131615,3.964969 3.5603804,7.331146 6.1416554,10.106624 5.42958,5.979825 11.927273,8.965685 19.493081,8.965685 7.921846,0.0162 14.379081,-2.71074 19.355521,-8.156508 l 0,0 z"
   id="path3"
   inkscape:connector-curvature="0"
   style="fill:#bcbcbc;fill-opacity:1" />
</svg>