<?xml version="1.0" encoding="UTF-8" standalone="no"?>
<!-- Generator: Adobe Illustrator 13.0.0, SVG Export Plug-In . SVG Version: 6.00 Build 14948)  -->

<svg
   xmlns:dc="http://purl.org/dc/elements/1.1/"
   xmlns:cc="http://creativecommons.org/ns#"
   xmlns:rdf="http://www.w3.org/1999/02/22-rdf-syntax-ns#"
   xmlns:svg="http://www.w3.org/2000/svg"
   xmlns="http://www.w3.org/2000/svg"
   xmlns:sodipodi="http://sodipodi.sourceforge.net/DTD/sodipodi-0.dtd"
   xmlns:inkscape="http://www.inkscape.org/namespaces/inkscape"
   version="1.1"
   id="Layer_1"
   x="0px"
   y="0px"
   width="16"
   height="16"
   viewBox="0 0 16 16"
   enable-background="new 0 0 128 128"
   xml:space="preserve"
   inkscape:version="0.48.4 r9939"
   sodipodi:docname="settings.svg"><metadata
   id="metadata11"><rdf:RDF><cc:Work
       rdf:about=""><dc:format>image/svg+xml</dc:format><dc:type
         rdf:resource="http://purl.org/dc/dcmitype/StillImage" /></cc:Work></rdf:RDF></metadata><defs
   id="defs9" /><sodipodi:namedview
   pagecolor="#ffffff"
   bordercolor="#666666"
   borderopacity="1"
   objecttolerance="10"
   gridtolerance="10"
   guidetolerance="10"
   inkscape:pageopacity="0"
   inkscape:pageshadow="2"
   inkscape:window-width="1280"
   inkscape:window-height="962"
   id="namedview7"
   showgrid="false"
   inkscape:zoom="5.2149125"
   inkscape:cx="64"
   inkscape:cy="64"
   inkscape:window-x="-8"
   inkscape:window-y="-8"
   inkscape:window-maximized="1"
   inkscape:current-layer="Layer_1" />
<g
   id="g3"
   transform="matrix(0.64,0,0,0.6400256,-33.28064,-32.664624)"
   style="fill:#ffffff">
	<path
   clip-rule="evenodd"
   d="m 74.995,66.006 h -1.324 c -0.215,0.779 -0.523,1.518 -0.918,2.203 l 1.224,1.223 c 0.783,0.783 0.783,2.053 0,2.836 l -0.709,0.709 c -0.783,0.783 -2.053,0.783 -2.836,0 L 69.2,71.745 c -0.683,0.389 -1.419,0.692 -2.194,0.903 v 1.284 c 0,1.107 -0.897,2.005 -2.005,2.005 h -1.002 c -1.107,0 -2.006,-0.897 -2.006,-2.005 v -1.284 c -0.774,-0.211 -1.511,-0.515 -2.194,-0.903 l -1.231,1.231 c -0.782,0.783 -2.052,0.783 -2.835,0 l -0.709,-0.709 c -0.783,-0.783 -0.783,-2.053 0,-2.836 l 1.224,-1.223 c -0.395,-0.686 -0.703,-1.424 -0.919,-2.203 h -1.323 c -1.107,0 -2.005,-0.897 -2.005,-2.004 v -1.002 c 0,-1.107 0.897,-2.005 2.005,-2.005 h 1.308 c 0.207,-0.771 0.504,-1.505 0.888,-2.187 l -1.177,-1.176 c -0.783,-0.783 -0.783,-2.053 0,-2.836 l 0.709,-0.708 c 0.783,-0.783 2.053,-0.783 2.835,0 l 1.153,1.153 c 0.706,-0.411 1.468,-0.731 2.272,-0.95 v -1.347 c 0,-1.107 0.898,-2.005 2.006,-2.005 h 1.002 c 1.107,0 2.005,0.897 2.005,2.005 v 1.347 c 0.806,0.22 1.567,0.54 2.272,0.951 l 1.153,-1.153 c 0.783,-0.783 2.053,-0.783 2.836,0 l 0.709,0.708 c 0.783,0.783 0.783,2.053 0,2.836 L 72.8,58.807 c 0.384,0.681 0.68,1.415 0.888,2.187 h 1.308 c 1.107,0 2.005,0.898 2.005,2.005 v 1.002 C 77,65.108 76.103,66.006 74.995,66.006 z M 64.5,58.018 c -3.045,0 -5.514,2.469 -5.514,5.514 0,3.045 2.469,5.514 5.514,5.514 3.045,0 5.514,-2.469 5.514,-5.514 0,-3.045 -2.469,-5.514 -5.514,-5.514 z m 0,7.957 c -1.384,0 -2.507,-1.121 -2.507,-2.506 0,-1.384 1.123,-2.506 2.507,-2.506 1.384,0 2.506,1.122 2.506,2.506 0,1.385 -1.122,2.506 -2.506,2.506 z"
   id="path5"
   inkscape:connector-curvature="0"
   style="fill:#ffffff;fill-rule:evenodd" />
</g>
</svg>