<?xml version="1.0" encoding="UTF-8" standalone="no"?>
<!-- Generator: Adobe Illustrator 13.0.0, SVG Export Plug-In . SVG Version: 6.00 Build 14948)  -->

<svg
   xmlns:dc="http://purl.org/dc/elements/1.1/"
   xmlns:cc="http://creativecommons.org/ns#"
   xmlns:rdf="http://www.w3.org/1999/02/22-rdf-syntax-ns#"
   xmlns:svg="http://www.w3.org/2000/svg"
   xmlns="http://www.w3.org/2000/svg"
   xmlns:sodipodi="http://sodipodi.sourceforge.net/DTD/sodipodi-0.dtd"
   xmlns:inkscape="http://www.inkscape.org/namespaces/inkscape"
   version="1.1"
   id="Layer_1"
   inkscape:version="0.48.4 r9939"
   sodipodi:docname="check.svg"
   x="0px"
   y="0px"
   width="128px"
   height="128px"
   viewBox="0 0 128 128"
   enable-background="new 0 0 128 128"
   xml:space="preserve"><metadata
   id="metadata9"><rdf:RDF><cc:Work
       rdf:about=""><dc:format>image/svg+xml</dc:format><dc:type
         rdf:resource="http://purl.org/dc/dcmitype/StillImage" /></cc:Work></rdf:RDF></metadata><defs
   id="defs7" /><sodipodi:namedview
   pagecolor="#ffffff"
   bordercolor="#666666"
   borderopacity="1"
   objecttolerance="10"
   gridtolerance="10"
   guidetolerance="10"
   inkscape:pageopacity="0"
   inkscape:pageshadow="2"
   inkscape:window-width="1280"
   inkscape:window-height="962"
   id="namedview5"
   showgrid="false"
   inkscape:zoom="1.84375"
   inkscape:cx="64"
   inkscape:cy="64"
   inkscape:window-x="-8"
   inkscape:window-y="-8"
   inkscape:window-maximized="1"
   inkscape:current-layer="Layer_1" />
<path
   clip-rule="evenodd"
   d="m 53.137425,98.563519 c -1.31855,1.31855 -3.471404,1.31855 -4.797247,0 l -1.064758,-1.066217 0,0 -1.136229,-1.13477 -4.992695,-4.999988 c -0.02188,-0.02188 -0.01459,-0.04813 -0.02917,-0.06272 L 18.227937,68.241244 c -1.325843,-1.317092 -1.325843,-3.471404 0,-4.795789 l 7.195141,-7.202433 c 1.333136,-1.324385 3.478697,-1.324385 4.810374,0 L 50.765785,76.937256 93.948299,33.756201 c 1.317092,-1.325843 3.471404,-1.325843 4.797247,0 l 7.195144,7.202433 c 1.33167,1.325843 1.33167,3.471404 0,4.803082 z"
   id="path3"
   inkscape:connector-curvature="0"
   style="fill-rule:evenodd"
   sodipodi:nodetypes="sccccccccccccccss" />
</svg>