<?xml version="1.0" encoding="UTF-8" standalone="no"?>
<!-- Generator: Adobe Illustrator 13.0.0, SVG Export Plug-In . SVG Version: 6.00 Build 14948)  -->

<svg
   xmlns:dc="http://purl.org/dc/elements/1.1/"
   xmlns:cc="http://creativecommons.org/ns#"
   xmlns:rdf="http://www.w3.org/1999/02/22-rdf-syntax-ns#"
   xmlns:svg="http://www.w3.org/2000/svg"
   xmlns="http://www.w3.org/2000/svg"
   xmlns:sodipodi="http://sodipodi.sourceforge.net/DTD/sodipodi-0.dtd"
   xmlns:inkscape="http://www.inkscape.org/namespaces/inkscape"
   version="1.1"
   id="Layer_1"
   x="0px"
   y="0px"
   width="128px"
   height="128px"
   viewBox="0 0 128 128"
   enable-background="new 0 0 128 128"
   xml:space="preserve"
   inkscape:version="0.48.4 r9939"
   sodipodi:docname="plus.svg"><metadata
   id="metadata11"><rdf:RDF><cc:Work
       rdf:about=""><dc:format>image/svg+xml</dc:format><dc:type
         rdf:resource="http://purl.org/dc/dcmitype/StillImage" /></cc:Work></rdf:RDF></metadata><defs
   id="defs9" /><sodipodi:namedview
   pagecolor="#ffffff"
   bordercolor="#666666"
   borderopacity="1"
   objecttolerance="10"
   gridtolerance="10"
   guidetolerance="10"
   inkscape:pageopacity="0"
   inkscape:pageshadow="2"
   inkscape:window-width="1280"
   inkscape:window-height="962"
   id="namedview7"
   showgrid="false"
   inkscape:zoom="5.6568542"
   inkscape:cx="63.5"
   inkscape:cy="64.503553"
   inkscape:window-x="-8"
   inkscape:window-y="-8"
   inkscape:window-maximized="1"
   inkscape:current-layer="Layer_1" />

<path
   style="fill:#000000;fill-opacity:1"
   d="m 62.15625,24.59375 c -3.057715,0.111918 -5.925666,0.757314 -5.90533,4 l 0,27.65717 -27.65717,0 c -3.706,0 -4,3.54208 -4,7.24908 0,3.706 0.294076,7.272767 4,7.24908 l 27.65717,0 0,27.65717 c 0,3.707 3.54308,4 7.24908,4 3.708,0 6.456344,-0.3023 6.71875,-4 l 0,-27.65717 28.1875,0 c 3.707,0 4,-3.54308 4,-7.24908 0,-3.707 -0.293,-7.24908 -4,-7.24908 l -28.1875,0 0,-27.65717 c 0,-3.706 -3.01075,-4 -6.71875,-4 -0.46325,0 -0.906934,-0.01599 -1.34375,0 z"
   id="path5"
   inkscape:connector-curvature="0"
   sodipodi:nodetypes="sscssscssccssscsss" />
</svg>