<?xml version="1.0" encoding="UTF-8" standalone="no"?>
<!-- Generator: Adobe Illustrator 13.0.0, SVG Export Plug-In . SVG Version: 6.00 Build 14948)  -->

<svg
   xmlns:dc="http://purl.org/dc/elements/1.1/"
   xmlns:cc="http://creativecommons.org/ns#"
   xmlns:rdf="http://www.w3.org/1999/02/22-rdf-syntax-ns#"
   xmlns:svg="http://www.w3.org/2000/svg"
   xmlns="http://www.w3.org/2000/svg"
   xmlns:sodipodi="http://sodipodi.sourceforge.net/DTD/sodipodi-0.dtd"
   xmlns:inkscape="http://www.inkscape.org/namespaces/inkscape"
   version="1.1"
   id="Layer_1"
   x="0px"
   y="0px"
   width="128px"
   height="128px"
   viewBox="0 0 128 128"
   enable-background="new 0 0 128 128"
   xml:space="preserve"
   inkscape:version="0.48.4 r9939"
   sodipodi:docname="Untitled-2.svg"><metadata
   id="metadata9"><rdf:RDF><cc:Work
       rdf:about=""><dc:format>image/svg+xml</dc:format><dc:type
         rdf:resource="http://purl.org/dc/dcmitype/StillImage" /></cc:Work></rdf:RDF></metadata><defs
   id="defs7" /><sodipodi:namedview
   pagecolor="#ffffff"
   bordercolor="#666666"
   borderopacity="1"
   objecttolerance="10"
   gridtolerance="10"
   guidetolerance="10"
   inkscape:pageopacity="0"
   inkscape:pageshadow="2"
   inkscape:window-width="1280"
   inkscape:window-height="962"
   id="namedview5"
   showgrid="false"
   inkscape:zoom="5.2501484"
   inkscape:cx="63.186441"
   inkscape:cy="61.559322"
   inkscape:window-x="-8"
   inkscape:window-y="-8"
   inkscape:window-maximized="1"
   inkscape:current-layer="Layer_1" />
<path
   d="M 35.09814,31.751952 C 52.591661,16.450332 79.069171,18.024375 94.759075,35.096307 L 108.26906,22.879318 107.78567,61.193612 69.750983,56.571163 84.855684,44.253524 C 74.21131,32.857325 56.401391,31.855662 44.61472,42.165486 c -12.031128,10.523655 -13.224988,28.8366 -2.668389,40.905395 10.5566,12.068795 28.866248,13.321985 40.896669,2.798947 4.824532,-4.220029 7.901538,-9.693646 9.180418,-15.513599 l 13.340012,1.761103 C 103.65149,81.179712 99.0138,89.749423 91.5439,96.283363 73.780449,111.82109 46.746381,109.97128 31.158404,92.150366 15.570428,74.329466 17.334693,47.28968 35.09814,31.751952"
   id="path3"
   inkscape:connector-curvature="0"
   sodipodi:nodetypes="ccccccsssccssc" />
</svg>