<?xml version="1.0" encoding="UTF-8" standalone="no"?>
<!-- Generator: Adobe Illustrator 13.0.0, SVG Export Plug-In . SVG Version: 6.00 Build 14948)  -->

<svg
   xmlns:dc="http://purl.org/dc/elements/1.1/"
   xmlns:cc="http://creativecommons.org/ns#"
   xmlns:rdf="http://www.w3.org/1999/02/22-rdf-syntax-ns#"
   xmlns:svg="http://www.w3.org/2000/svg"
   xmlns="http://www.w3.org/2000/svg"
   xmlns:sodipodi="http://sodipodi.sourceforge.net/DTD/sodipodi-0.dtd"
   xmlns:inkscape="http://www.inkscape.org/namespaces/inkscape"
   version="1.1"
   id="Layer_1"
   x="0px"
   y="0px"
   width="96"
   height="32"
   viewBox="0 0 96 32"
   enable-background="new 0 0 128 128"
   xml:space="preserve"
   inkscape:version="0.48.4 r9939"
   sodipodi:docname="enter.svg"><metadata
   id="metadata9"><rdf:RDF><cc:Work
       rdf:about=""><dc:format>image/svg+xml</dc:format><dc:type
         rdf:resource="http://purl.org/dc/dcmitype/StillImage" /></cc:Work></rdf:RDF></metadata><defs
   id="defs7" /><sodipodi:namedview
   pagecolor="#ffffff"
   bordercolor="#666666"
   borderopacity="1"
   objecttolerance="10"
   gridtolerance="10"
   guidetolerance="10"
   inkscape:pageopacity="0"
   inkscape:pageshadow="2"
   inkscape:window-width="1280"
   inkscape:window-height="962"
   id="namedview5"
   showgrid="false"
   inkscape:zoom="8"
   inkscape:cx="40.246186"
   inkscape:cy="13.5"
   inkscape:window-x="-8"
   inkscape:window-y="-8"
   inkscape:window-maximized="1"
   inkscape:current-layer="Layer_1" />

<rect
   style="fill:#cccccc;fill-rule:evenodd;stroke:none"
   id="rect2987"
   width="54.908176"
   height="16.002096"
   x="21.825844"
   y="7.9651127"
   ry="3.0133815" /><g
   style="font-size:69.45754242px;font-style:normal;font-weight:normal;line-height:125%;letter-spacing:0px;word-spacing:0px;fill:#ffffff;fill-opacity:1;stroke:none;font-family:Sans"
   id="text3757"
   transform="translate(21.75,1.125)"><path
     d="m 5.2916802,19.894669 0,-9.9438241 7.3730808,0 0,1.6821751 -5.3653238,0 0,2.204463 4.9922608,0 0,1.675392 -4.9922608,0 0,2.706402 5.5552468,0 0,1.675392 z"
     style="font-size:13.8915081px;font-variant:normal;font-weight:bold;font-stretch:normal;fill:#ffffff;font-family:Arial;-inkscape-font-specification:Arial Bold"
     id="path2985"
     inkscape:connector-curvature="0" /><path
     d="m 14.591123,19.894669 0,-9.9438241 1.953493,0 4.069778,6.6405211 0,-6.6405211 1.865315,0 0,9.9438241 -2.01454,0 -4.008731,-6.484513 0,6.484513 z"
     style="font-size:13.8915081px;font-variant:normal;font-weight:bold;font-stretch:normal;fill:#ffffff;font-family:Arial;-inkscape-font-specification:Arial Bold"
     id="path2987"
     inkscape:connector-curvature="0" /><path
     d="m 26.847937,19.894669 0,-8.261649 -2.950589,0 0,-1.6821751 7.902152,0 0,1.6821751 -2.943806,0 0,8.261649 z"
     style="font-size:13.8915081px;font-variant:normal;font-weight:bold;font-stretch:normal;fill:#ffffff;font-family:Arial;-inkscape-font-specification:Arial Bold"
     id="path2989"
     inkscape:connector-curvature="0" /><path
     d="m 33.101828,19.894669 0,-9.9438241 7.373081,0 0,1.6821751 -5.365324,0 0,2.204463 4.992261,0 0,1.675392 -4.992261,0 0,2.706402 5.555247,0 0,1.675392 z"
     style="font-size:13.8915081px;font-variant:normal;font-weight:bold;font-stretch:normal;fill:#ffffff;font-family:Arial;-inkscape-font-specification:Arial Bold"
     id="path2991"
     inkscape:connector-curvature="0" /><path
     d="m 42.387704,19.894669 0,-9.9438241 4.225786,0 c 1.062658,10e-6 1.834785,0.089319 2.316382,0.2679271 0.481582,0.178627 0.86708,0.496296 1.156495,0.953006 0.289398,0.456728 0.434101,0.979016 0.43411,1.566865 -9e-6,0.746132 -0.219325,1.362251 -0.657948,1.848357 -0.438639,0.486117 -1.094325,0.792481 -1.967059,0.919092 0.434103,0.253234 0.792469,0.531336 1.0751,0.834304 0.282615,0.302976 0.663591,0.84109 1.142929,1.614345 l 1.21415,1.939928 -2.401169,0 -1.451554,-2.163766 c -0.51551,-0.773254 -0.868224,-1.260497 -1.058142,-1.461728 -0.189928,-0.201224 -0.391155,-0.339144 -0.603684,-0.413761 -0.212537,-0.07461 -0.549423,-0.111915 -1.010661,-0.111919 l -0.406978,0 0,4.151174 z m 2.007757,-5.738387 1.485469,0 c 0.963175,6e-6 1.564597,-0.04069 1.804268,-0.122093 0.239658,-0.08139 0.42732,-0.221571 0.562986,-0.420544 0.135652,-0.198961 0.203482,-0.447669 0.203489,-0.746126 -7e-6,-0.334619 -0.08932,-0.604807 -0.267927,-0.810564 -0.178625,-0.205742 -0.430724,-0.335749 -0.7563,-0.39002 -0.162797,-0.0226 -0.65117,-0.03391 -1.46512,-0.03392 l -1.566865,0 z"
     style="font-size:13.8915081px;font-variant:normal;font-weight:bold;font-stretch:normal;fill:#ffffff;font-family:Arial;-inkscape-font-specification:Arial Bold"
     id="path2993"
     inkscape:connector-curvature="0" /></g>

</svg>