<?xml version="1.0" encoding="UTF-8" standalone="no"?>
<!-- Generator: Adobe Illustrator 13.0.0, SVG Export Plug-In . SVG Version: 6.00 Build 14948)  -->

<svg
   xmlns:dc="http://purl.org/dc/elements/1.1/"
   xmlns:cc="http://creativecommons.org/ns#"
   xmlns:rdf="http://www.w3.org/1999/02/22-rdf-syntax-ns#"
   xmlns:svg="http://www.w3.org/2000/svg"
   xmlns="http://www.w3.org/2000/svg"
   xmlns:sodipodi="http://sodipodi.sourceforge.net/DTD/sodipodi-0.dtd"
   xmlns:inkscape="http://www.inkscape.org/namespaces/inkscape"
   version="1.1"
   id="Layer_1"
   x="0px"
   y="0px"
   width="32"
   height="32"
   viewBox="0 0 32 32"
   enable-background="new 0 0 128 128"
   xml:space="preserve"
   inkscape:version="0.48.4 r9939"
   sodipodi:docname="mouse-right.svg"><metadata
   id="metadata9"><rdf:RDF><cc:Work
       rdf:about=""><dc:format>image/svg+xml</dc:format><dc:type
         rdf:resource="http://purl.org/dc/dcmitype/StillImage" /></cc:Work></rdf:RDF></metadata><defs
   id="defs7" /><sodipodi:namedview
   pagecolor="#ffffff"
   bordercolor="#666666"
   borderopacity="1"
   objecttolerance="10"
   gridtolerance="10"
   guidetolerance="10"
   inkscape:pageopacity="0"
   inkscape:pageshadow="2"
   inkscape:window-width="1280"
   inkscape:window-height="962"
   id="namedview5"
   showgrid="false"
   inkscape:zoom="18.859756"
   inkscape:cx="7.38486"
   inkscape:cy="15.061338"
   inkscape:window-x="-8"
   inkscape:window-y="-8"
   inkscape:window-maximized="1"
   inkscape:current-layer="Layer_1" />
<path
   clip-rule="evenodd"
   d="m 20.30538,29.15928 h -4.369538 c -2.896662,0 -5.243623,-2.347841 -5.243623,-5.243623 v -7.86587 h 5.298856 v 1.748164 c 0,0.965263 0.727672,1.747289 1.69381,1.747289 h 0.873206 c 0.966139,0 1.748165,-0.782901 1.748165,-1.747289 v -1.748164 h 5.297979 v 7.86587 c 0,2.895782 -2.403066,5.243623 -5.298855,5.243623 z m 0,-14.857663 c 0,-0.965259 -0.782907,-1.748164 -1.748164,-1.748164 l 0,0 V 7.3641867 c 0,0 -1.146743,-0.055231 1.693808,-0.055231 2.840551,0 5.353211,1.8568783 5.353211,5.2436223 0,1.738523 0,2.365372 0,2.567015 H 20.30538 V 14.301617 z M 17.747131,6.7171724 c 0,-1.6894262 -0.795179,-2.6301395 -2.38729,-2.6301395 -1.684167,0 -2.972935,1.2133708 -3.865429,3.639237 l -0.183233,0.4970957 c -1.044166,2.8361684 -2.574907,4.2546904 -4.589594,4.2546904 -0.81359,0 -1.572824,-0.310357 -2.278578,-0.929317 -0.705754,-0.619836 -1.058193,-1.285262 -1.058193,-1.9980293 0,-0.3524387 0.164822,-0.5295347 0.496219,-0.5295347 0.223562,0 0.454138,0.2814249 0.691727,0.843398 0.431343,1.038029 1.152002,1.557043 2.160221,1.557043 0.763619,0 1.387838,-0.246356 1.874414,-0.740823 0.486576,-0.493589 1.039782,-1.44307 1.658742,-2.8484411 l 0.399781,-0.8863574 c 1.173919,-2.6231258 2.755509,-3.9346891 4.742142,-3.9346891 2.276825,0 3.414796,1.2992891 3.414796,3.705867 h -0.01578 -1.059944 z m 1.684167,8.0210476 v 2.621377 c 0,0.724163 -0.586522,1.310686 -1.310687,1.310686 -0.724165,0 -1.310687,-0.586523 -1.310687,-1.310686 V 14.73822 c 0,-0.724162 0.586522,-1.31156 1.310687,-1.31156 0.724165,0 1.310687,0.587398 1.310687,1.31156 z m -3.4411,-7.4283892 c 2.839673,0 1.747289,0.055231 1.747289,0.055231 v 5.1892662 c -0.965261,0 -1.747289,0.782905 -1.747289,1.748164 v 0.819727 h -5.298856 c 0,-0.201643 0,-0.828492 0,-2.567014 0,-3.3884973 2.458304,-5.2453762 5.298856,-5.2453762 z"
   id="path3"
   inkscape:connector-curvature="0"
   style="color:#000000;fill:#cccccc;fill-opacity:1;fill-rule:nonzero;stroke-width:1;stroke-linecap:butt;stroke-linejoin:miter;stroke-miterlimit:4;stroke-opacity:1;stroke-dasharray:none;stroke-dashoffset:0;marker:none;visibility:visible;display:inline;overflow:visible;enable-background:accumulate" />
<path
   style="color:#000000;fill:#ff8f21;fill-opacity:1;fill-rule:nonzero;stroke-width:1;stroke-linecap:butt;stroke-linejoin:miter;stroke-miterlimit:4;stroke-opacity:1;stroke-dasharray:none;stroke-dashoffset:0;marker:none;visibility:visible;display:inline;overflow:visible;enable-background:accumulate"
   inkscape:connector-curvature="0"
   id="path3061"
   d="m 20.30538,14.301617 c 0,-0.965259 -0.782907,-1.748164 -1.748164,-1.748164 l 0,0 0,-5.1892663 c 0,0 -1.146743,-0.055231 1.693808,-0.055231 2.840551,0 5.353211,1.8568783 5.353211,5.2436223 0,1.738523 0,2.365372 0,2.567015 l -5.298855,0 z"
   clip-rule="evenodd"
   sodipodi:nodetypes="scccssccs" /></svg>