<?xml version="1.0" encoding="UTF-8" standalone="no"?>
<!-- Generator: Adobe Illustrator 13.0.0, SVG Export Plug-In . SVG Version: 6.00 Build 14948)  -->

<svg
   xmlns:dc="http://purl.org/dc/elements/1.1/"
   xmlns:cc="http://creativecommons.org/ns#"
   xmlns:rdf="http://www.w3.org/1999/02/22-rdf-syntax-ns#"
   xmlns:svg="http://www.w3.org/2000/svg"
   xmlns="http://www.w3.org/2000/svg"
   xmlns:sodipodi="http://sodipodi.sourceforge.net/DTD/sodipodi-0.dtd"
   xmlns:inkscape="http://www.inkscape.org/namespaces/inkscape"
   version="1.1"
   id="Layer_1"
   x="0px"
   y="0px"
   width="96"
   height="32"
   viewBox="0 0 96 32"
   enable-background="new 0 0 128 128"
   xml:space="preserve"
   inkscape:version="0.48.4 r9939"
   sodipodi:docname="mouse-right.svg"><metadata
   id="metadata9"><rdf:RDF><cc:Work
       rdf:about=""><dc:format>image/svg+xml</dc:format><dc:type
         rdf:resource="http://purl.org/dc/dcmitype/StillImage" /></cc:Work></rdf:RDF></metadata><defs
   id="defs7" /><sodipodi:namedview
   pagecolor="#ffffff"
   bordercolor="#666666"
   borderopacity="1"
   objecttolerance="10"
   gridtolerance="10"
   guidetolerance="10"
   inkscape:pageopacity="0"
   inkscape:pageshadow="2"
   inkscape:window-width="1280"
   inkscape:window-height="962"
   id="namedview5"
   showgrid="false"
   inkscape:zoom="1"
   inkscape:cx="7.38486"
   inkscape:cy="15.061338"
   inkscape:window-x="-8"
   inkscape:window-y="-8"
   inkscape:window-maximized="1"
   inkscape:current-layer="Layer_1" />
<path
   clip-rule="evenodd"
   d="m 54.904464,31.969497 h -5.346306 c -3.544182,0 -6.415785,-2.872678 -6.415785,-6.415784 v -9.624209 h 6.483364 v 2.138949 c 0,1.181038 0.890337,2.137878 2.072445,2.137878 h 1.068404 c 1.182109,0 2.138949,-0.957911 2.138949,-2.137878 v -2.138949 h 6.482291 v 9.624209 c 0,3.543106 -2.940248,6.415784 -6.483362,6.415784 z m 0,-18.17895 c 0,-1.181033 -0.957919,-2.138948 -2.138949,-2.138948 l 0,0 V 5.3023217 c 0,0 -1.403087,-0.067578 2.072442,-0.067578 3.475529,0 6.549869,2.2719655 6.549869,6.4157843 0,2.127152 0,2.894128 0,3.140845 H 54.904464 V 13.790547 z M 51.774343,4.5106736 c 0,-2.0670811 -0.972934,-3.2180817 -2.920946,-3.2180817 -2.060646,0 -3.637506,1.4846081 -4.729508,4.4527533 l -0.224193,0.6082165 c -1.277579,3.470166 -3.150503,5.2057853 -5.615553,5.2057853 -0.99546,0 -1.924414,-0.379735 -2.787932,-1.137056 -0.863519,-0.7583953 -1.294742,-1.5725708 -1.294742,-2.4446704 0,-0.4312228 0.201666,-0.647907 0.607144,-0.647907 0.273537,0 0.555656,0.3443347 0.846356,1.0319315 0.527765,1.2700702 1.409521,1.9051049 2.643117,1.9051049 0.934319,0 1.698076,-0.3014261 2.293421,-0.9064269 0.595346,-0.603926 1.272215,-1.7656543 2.029538,-3.4851824 l 0.489148,-1.0844941 c 1.436338,-3.2095001 3.371477,-4.81425059 5.802202,-4.81425059 2.785787,0 4.17814,1.58973259 4.17814,4.53427759 h -0.01931 -1.296885 z m 2.060646,9.8140754 v 3.207359 c 0,0.886044 -0.717633,1.603677 -1.603678,1.603677 -0.886045,0 -1.603678,-0.717633 -1.603678,-1.603677 v -3.207359 c 0,-0.886042 0.717633,-1.604746 1.603678,-1.604746 0.886045,0 1.603678,0.718704 1.603678,1.604746 z M 49.624665,5.235815 c 3.474454,0 2.137878,0.067578 2.137878,0.067578 v 6.349276 c -1.181036,0 -2.137878,0.957916 -2.137878,2.138948 v 1.002969 H 43.1413 c 0,-0.246717 0,-1.013693 0,-3.140844 0,-4.1459626 3.007835,-6.4179288 6.483365,-6.4179288 z"
   id="path3"
   inkscape:connector-curvature="0"
   style="color:#000000;fill:#cccccc;fill-opacity:1;fill-rule:nonzero;stroke-width:1;stroke-linecap:butt;stroke-linejoin:miter;stroke-miterlimit:4;stroke-opacity:1;stroke-dasharray:none;stroke-dashoffset:0;marker:none;visibility:visible;display:inline;overflow:visible;enable-background:accumulate" />
<path
   style="color:#000000;fill:#ff8f21;fill-opacity:1;fill-rule:nonzero;stroke-width:1;stroke-linecap:butt;stroke-linejoin:miter;stroke-miterlimit:4;stroke-opacity:1;stroke-dasharray:none;stroke-dashoffset:0;marker:none;visibility:visible;display:inline;overflow:visible;enable-background:accumulate"
   inkscape:connector-curvature="0"
   id="path3061"
   d="m 54.904464,13.790547 c 0,-1.181033 -0.957919,-2.138948 -2.138949,-2.138948 l 0,0 0,-6.3492773 c 0,0 -1.403087,-0.067578 2.072442,-0.067578 3.475529,0 6.549869,2.2719655 6.549869,6.4157843 0,2.127152 0,2.894128 0,3.140845 l -6.483362,0 z"
   clip-rule="evenodd"
   sodipodi:nodetypes="scccssccs" /></svg>