<?xml version="1.0" encoding="UTF-8" standalone="no"?>
<!-- Generator: Adobe Illustrator 13.0.0, SVG Export Plug-In . SVG Version: 6.00 Build 14948)  -->

<svg
   xmlns:dc="http://purl.org/dc/elements/1.1/"
   xmlns:cc="http://creativecommons.org/ns#"
   xmlns:rdf="http://www.w3.org/1999/02/22-rdf-syntax-ns#"
   xmlns:svg="http://www.w3.org/2000/svg"
   xmlns="http://www.w3.org/2000/svg"
   xmlns:sodipodi="http://sodipodi.sourceforge.net/DTD/sodipodi-0.dtd"
   xmlns:inkscape="http://www.inkscape.org/namespaces/inkscape"
   version="1.1"
   id="Layer_1"
   x="0px"
   y="0px"
   width="96"
   height="32"
   viewBox="0 0 96 32"
   enable-background="new 0 0 128 128"
   xml:space="preserve"
   inkscape:version="0.48.4 r9939"
   sodipodi:docname="space.svg"><metadata
   id="metadata9"><rdf:RDF><cc:Work
       rdf:about=""><dc:format>image/svg+xml</dc:format><dc:type
         rdf:resource="http://purl.org/dc/dcmitype/StillImage" /></cc:Work></rdf:RDF></metadata><defs
   id="defs7" /><sodipodi:namedview
   pagecolor="#ffffff"
   bordercolor="#666666"
   borderopacity="1"
   objecttolerance="10"
   gridtolerance="10"
   guidetolerance="10"
   inkscape:pageopacity="0"
   inkscape:pageshadow="2"
   inkscape:window-width="1280"
   inkscape:window-height="962"
   id="namedview5"
   showgrid="false"
   inkscape:zoom="8"
   inkscape:cx="45.593644"
   inkscape:cy="13.5"
   inkscape:window-x="-8"
   inkscape:window-y="-8"
   inkscape:window-maximized="1"
   inkscape:current-layer="Layer_1" />

<rect
   style="fill:#cccccc;fill-rule:evenodd;stroke:none"
   id="rect2987"
   width="54.908176"
   height="16.002096"
   x="21.700844"
   y="7.8401132"
   ry="3.0133815" /><g
   style="font-size:69.45754242px;font-style:normal;font-weight:normal;line-height:125%;letter-spacing:0px;word-spacing:0px;fill:#ffffff;fill-opacity:1;stroke:none;font-family:Sans"
   id="text3757"><path
     d="m 26.205799,17.659195 1.953493,-0.189923 c 0.117569,0.655689 0.356103,1.137279 0.715603,1.444771 0.359493,0.307496 0.844474,0.461243 1.454945,0.461242 0.646637,10e-7 1.13388,-0.136788 1.461729,-0.410369 0.327836,-0.273578 0.491758,-0.593507 0.491764,-0.95979 -6e-6,-0.235139 -0.06897,-0.435236 -0.20688,-0.600292 -0.137926,-0.165048 -0.378721,-0.308621 -0.722386,-0.430718 -0.235148,-0.08139 -0.771001,-0.226095 -1.607562,-0.43411 -1.076233,-0.266792 -1.831402,-0.594634 -2.265509,-0.983529 -0.610468,-0.547153 -0.915701,-1.214144 -0.9157,-2.000974 -1e-6,-0.506454 0.143571,-0.98013 0.430718,-1.421031 0.287144,-0.440883 0.700904,-0.77664 1.241282,-1.00727 0.540373,-0.230611 1.192667,-0.345921 1.956885,-0.345931 1.248059,10e-6 2.187499,0.273589 2.818321,0.820738 0.630808,0.547168 0.962042,1.277466 0.993704,2.190897 l -2.007757,0.08818 c -0.08592,-0.510976 -0.270194,-0.878386 -0.552812,-1.102232 -0.282628,-0.223829 -0.706563,-0.335748 -1.271805,-0.335756 -0.583339,8e-6 -1.040058,0.11984 -1.370159,0.359497 -0.212535,0.153755 -0.318802,0.359505 -0.318799,0.617249 -3e-6,0.23515 0.09948,0.436378 0.298451,0.603684 0.253227,0.21254 0.868215,0.434116 1.844965,0.66473 0.976741,0.230627 1.699126,0.469161 2.167157,0.715603 0.468017,0.246453 0.834297,0.58334 1.09884,1.010662 0.264527,0.42733 0.396795,0.95527 0.396803,1.583821 -8e-6,0.569772 -0.158277,1.103364 -0.474807,1.60078 -0.316546,0.497418 -0.764221,0.867089 -1.343027,1.109014 -0.578819,0.241926 -1.300073,0.362888 -2.163765,0.362889 -1.257112,-1e-6 -2.222553,-0.290537 -2.896325,-0.871611 -0.673775,-0.581073 -1.076231,-1.427812 -1.207367,-2.54022 z"
     style="font-size:13.8915081px;font-variant:normal;font-weight:bold;font-stretch:normal;fill:#ffffff;font-family:Arial;-inkscape-font-specification:Arial Bold"
     id="path2985" /><path
     d="m 35.993615,20.894669 0,-9.943824 3.221907,0 c 1.220928,1e-5 2.016795,0.04975 2.387603,0.149225 0.569762,0.149235 1.04683,0.473686 1.431205,0.973355 0.38436,0.499687 0.576543,1.145198 0.576552,1.936536 -9e-6,0.610473 -0.110797,1.123717 -0.332365,1.539733 -0.221585,0.416026 -0.503078,0.742739 -0.844479,0.980138 -0.341416,0.237408 -0.688478,0.394546 -1.041185,0.471416 -0.479335,0.09496 -1.173458,0.142446 -2.08237,0.142442 l -1.309111,0 0,3.750979 z m 2.007757,-8.261649 0,2.821712 1.09884,0 c 0.79134,6e-6 1.320411,-0.052 1.587213,-0.156008 0.26679,-0.104 0.475932,-0.266791 0.627424,-0.488373 0.15148,-0.221571 0.227223,-0.479323 0.227229,-0.773258 -6e-6,-0.361751 -0.106273,-0.660201 -0.318799,-0.895351 -0.212539,-0.235135 -0.481596,-0.382099 -0.807173,-0.440893 -0.239669,-0.04521 -0.721259,-0.06782 -1.444771,-0.06783 z"
     style="font-size:13.8915081px;font-variant:normal;font-weight:bold;font-stretch:normal;fill:#ffffff;font-family:Arial;-inkscape-font-specification:Arial Bold"
     id="path2987" /><path
     d="m 54.239785,20.894669 -2.184114,0 -0.868219,-2.258727 -3.974816,0 -0.820739,2.258727 -2.12985,0 3.873072,-9.943824 2.123067,0 z M 50.54307,16.96055 49.172912,13.270618 47.829885,16.96055 z"
     style="font-size:13.8915081px;font-variant:normal;font-weight:bold;font-stretch:normal;fill:#ffffff;font-family:Arial;-inkscape-font-specification:Arial Bold"
     id="path2989" /><path
     d="m 61.673913,17.238652 1.946711,0.617249 c -0.29846,1.085276 -0.794746,1.891317 -1.488861,2.418126 -0.69413,0.526811 -1.574784,0.790215 -2.641964,0.790216 -1.32042,-1e-6 -2.405693,-0.451067 -3.255822,-1.353201 -0.850132,-0.902132 -1.275198,-2.1355 -1.275197,-3.700107 -10e-7,-1.655036 0.427326,-2.940406 1.28198,-3.856114 0.854651,-0.915691 1.97836,-1.37354 3.371133,-1.37355 1.216405,10e-6 2.204455,0.359507 2.964155,1.078491 0.452188,0.425074 0.791336,1.03554 1.017444,1.8314 l -1.987408,0.474807 c -0.117579,-0.515498 -0.362896,-0.922475 -0.735952,-1.220933 -0.373069,-0.298442 -0.826396,-0.447667 -1.359984,-0.447676 -0.737086,9e-6 -1.335117,0.264544 -1.794093,0.793607 -0.458984,0.529078 -0.688474,1.385992 -0.688471,2.570743 -3e-6,1.257113 0.226096,2.152463 0.678296,2.686053 0.452194,0.533595 1.04005,0.800392 1.763571,0.80039 0.533587,2e-6 0.992567,-0.169572 1.376941,-0.508722 0.384361,-0.339146 0.660201,-0.872738 0.827521,-1.600779 z"
     style="font-size:13.8915081px;font-variant:normal;font-weight:bold;font-stretch:normal;fill:#ffffff;font-family:Arial;-inkscape-font-specification:Arial Bold"
     id="path2991" /><path
     d="m 65.350278,20.894669 0,-9.943824 7.373081,0 0,1.682175 -5.365324,0 0,2.204463 4.992261,0 0,1.675392 -4.992261,0 0,2.706402 5.555247,0 0,1.675392 z"
     style="font-size:13.8915081px;font-variant:normal;font-weight:bold;font-stretch:normal;fill:#ffffff;font-family:Arial;-inkscape-font-specification:Arial Bold"
     id="path2993" /></g>
</svg>